<svg xmlns="http://www.w3.org/2000/svg" viewBox="0 0 512 512"><path d="M448 258.102c5.522 0 10-4.477 10-10V90c0-27.57-22.43-50-50-50h-67.78c-4.992-6.384-12.757-10.5-21.47-10.5h-16.267C294.525 11.806 276.742 0 256.877 0h-1.754c-19.865 0-37.648 11.806-45.606 29.5H193.25c-8.713 0-16.479 4.116-21.47 10.5H104c-27.57 0-50 22.43-50 50v372c0 27.57 22.43 50 50 50h304c27.57 0 50-22.43 50-50V331.937c0-5.523-4.478-10-10-10s-10 4.477-10 10V462c0 16.542-13.458 30-30 30H104c-16.542 0-30-13.458-30-30V90c0-16.542 13.458-30 30-30h62v20h-52c-11.028 0-20 8.972-20 20v352c0 11.028 8.972 20 20 20h284c11.028 0 20-8.972 20-20V100c0-11.028-8.972-20-20-20h-52V60h62c16.542 0 30 13.458 30 30v158.102c0 5.523 4.478 10 10 10zM186 56.75c0-3.998 3.252-7.25 7.25-7.25h23.275a9.999 9.999 0 0 0 9.651-7.381C229.711 29.096 241.614 20 255.123 20h1.754c13.509 0 25.412 9.096 28.946 22.119a10.002 10.002 0 0 0 9.651 7.381h23.275c3.998 0 7.25 3.252 7.25 7.25V80H186V56.75zM398 100l.013 352H114V100h20v62c0 5.523 4.478 10 10 10s10-4.477 10-10v-62h244z"/><path d="M340 282.117v-24.309c0-5.523-4.478-10-10-10h-64v-19.474c21.683-4.614 38-23.906 38-46.945 0-26.467-21.532-48-48-48s-48 21.533-48 48c0 23.038 16.317 42.331 38 46.945v19.474h-64c-5.522 0-10 4.477-10 10v24.309c-18.345 4.499-32 21.075-32 40.787 0 23.159 18.841 42 42 42s42-18.841 42-42c0-19.713-13.655-36.288-32-40.787v-14.309h128v14.309c-18.345 4.499-32 21.075-32 40.787 0 23.159 18.841 42 42 42s42-18.841 42-42c0-19.713-13.655-36.288-32-40.787zm-136 40.787c0 12.131-9.869 22-22 22s-22-9.869-22-22 9.869-22 22-22 22 9.869 22 22zm24-141.515c0-15.439 12.561-28 28-28s28 12.561 28 28-12.561 28-28 28-28-12.56-28-28zm102 163.515c-12.131 0-22-9.869-22-22s9.869-22 22-22 22 9.869 22 22-9.869 22-22 22zM310.74 400.93a10.076 10.076 0 0 0-7.07-2.93c-2.64 0-5.21 1.07-7.07 2.93-1.87 1.86-2.93 4.44-2.93 7.07s1.06 5.21 2.93 7.07a10.06 10.06 0 0 0 7.07 2.93c2.63 0 5.21-1.07 7.07-2.93 1.859-1.86 2.93-4.44 2.93-7.07s-1.07-5.21-2.93-7.07zM264.71 400.93a10.076 10.076 0 0 0-7.07-2.93c-2.64 0-5.21 1.07-7.07 2.93-1.859 1.86-2.93 4.44-2.93 7.07s1.07 5.21 2.93 7.07c1.86 1.86 4.44 2.93 7.07 2.93s5.21-1.07 7.07-2.93c1.859-1.86 2.93-4.44 2.93-7.07s-1.07-5.21-2.93-7.07zM218.24 400.93a10.076 10.076 0 0 0-7.07-2.93c-2.64 0-5.22 1.07-7.07 2.93-1.87 1.86-2.93 4.44-2.93 7.07s1.06 5.21 2.93 7.07a10.06 10.06 0 0 0 7.07 2.93c2.63 0 5.21-1.07 7.07-2.93 1.859-1.86 2.93-4.44 2.93-7.07s-1.07-5.21-2.93-7.07zM455.069 283.83c-1.859-1.86-4.439-2.93-7.069-2.93s-5.21 1.07-7.07 2.93a10.076 10.076 0 0 0-2.93 7.07c0 2.64 1.069 5.21 2.93 7.08 1.86 1.86 4.44 2.92 7.07 2.92s5.21-1.06 7.069-2.92A10.118 10.118 0 0 0 458 290.9c0-2.63-1.07-5.2-2.931-7.07zM151.069 195.93C149.21 194.07 146.63 193 144 193s-5.21 1.07-7.07 2.93S134 200.37 134 203s1.069 5.21 2.93 7.07c1.861 1.86 4.44 2.93 7.07 2.93s5.21-1.07 7.069-2.93c1.86-1.86 2.931-4.44 2.931-7.07s-1.07-5.21-2.931-7.07z"/></svg>