<svg xmlns="http://www.w3.org/2000/svg" viewBox="0 0 463 463" id='root'><path d="M395.195 67.805C351.471 24.08 293.336 0 231.5 0S111.529 24.08 67.805 67.805 0 169.664 0 231.5s24.08 119.971 67.805 163.695S169.664 463 231.5 463s119.971-24.08 163.695-67.805S463 293.336 463 231.5s-24.08-119.971-67.805-163.695zM429.204 320h-34.488c8.005-25.444 12.503-52.793 13.183-81h39.959c-.959 28.346-7.338 55.746-18.654 81zM15.142 239h39.959c.679 28.207 5.177 55.556 13.183 81H33.796c-11.316-25.254-17.695-52.654-18.654-81zm18.654-96h34.488c-8.005 25.444-12.503 52.793-13.183 81H15.142c.959-28.346 7.338-55.746 18.654-81zm294.15 81c-.363-28.221-2.767-55.577-7.039-81h57.973c8.346 24.878 13.278 52.236 14.013 81h-64.947zM281.87 400H239v-65h63.821c-4.013 18.969-9.161 36.525-15.358 52.123A218.488 218.488 0 0 1 281.87 400zM239 446.988V415h34.85c-10.691 17.643-22.689 28.727-34.85 31.988zM189.15 415H224v31.988c-12.161-3.261-24.159-14.345-34.85-31.988zm-13.613-27.877c-6.197-15.598-11.346-33.153-15.358-52.123H224v65h-42.87a218.488 218.488 0 0 1-5.593-12.877zM181.13 63H224v65h-63.821c4.013-18.969 9.161-36.525 15.358-52.123A218.488 218.488 0 0 1 181.13 63zM224 16.012V48h-34.85c10.691-17.643 22.689-28.727 34.85-31.988zM273.85 48H239V16.012c12.161 3.261 24.159 14.345 34.85 31.988zm13.613 27.877c6.197 15.598 11.346 33.153 15.358 52.123H239V63h42.87a218.488 218.488 0 0 1 5.593 12.877zM224 143v81h-73.945c.372-28.338 2.847-55.721 7.241-81H224zm0 96v81h-66.703c-4.394-25.279-6.869-52.662-7.241-81H224zm15 81v-81h73.945c-.372 28.338-2.847 55.721-7.241 81H239zm0-96v-81h66.703c4.394 25.279 6.869 52.662 7.241 81H239zm79.124-96c-4.278-21.008-9.885-40.455-16.722-57.661a244.108 244.108 0 0 0-3.06-7.339h34.439c16.482 17.839 30.309 39.917 40.536 65h-55.193zm-27.019-80c-5.326-9.946-11.062-18.44-17.129-25.386 15.411 5.638 29.91 14.263 43.13 25.386h-26.001zm-119.21 0h-26c13.22-11.123 27.718-19.748 43.13-25.386-6.068 6.946-11.804 15.44-17.13 25.386zm-7.237 15a244.108 244.108 0 0 0-3.06 7.339c-6.836 17.206-12.444 36.653-16.722 57.661H89.683c10.227-25.083 24.053-47.161 40.536-65h34.439zm-22.565 80c-4.272 25.423-6.676 52.779-7.039 81H70.107c.735-28.764 5.667-56.122 14.013-81h57.973zm-71.986 96h64.947c.363 28.221 2.767 55.577 7.039 81H84.12c-8.346-24.878-13.278-52.236-14.013-81zm74.769 96c4.278 21.008 9.885 40.455 16.722 57.661a244.108 244.108 0 0 0 3.06 7.339h-34.439c-16.482-17.839-30.309-39.917-40.536-65h55.193zm27.019 80c5.326 9.946 11.062 18.44 17.129 25.386-15.411-5.638-29.91-14.263-43.13-25.386h26.001zm119.21 0h26c-13.22 11.123-27.718 19.748-43.13 25.386 6.068-6.946 11.804-15.44 17.13-25.386zm7.237-15a244.108 244.108 0 0 0 3.06-7.339c6.836-17.206 12.444-36.653 16.722-57.661h55.193c-10.227 25.083-24.053 47.161-40.536 65h-34.439zm22.565-80c4.272-25.423 6.676-52.779 7.039-81h64.947c-.735 28.764-5.667 56.122-14.013 81h-57.973zm86.992-96c-.679-28.207-5.177-55.556-13.183-81h34.488c11.317 25.254 17.695 52.654 18.654 81h-39.959zm13.858-96H389.51c-8.258-21.675-19.173-41.716-32.522-59.409A218.06 218.06 0 0 0 352.607 63h14.854a220.341 220.341 0 0 1 17.127 15.411c14.901 14.9 27.348 31.595 37.169 49.589zm-75.231-80h-7.289a186.158 186.158 0 0 0-11.018-10.311A214.717 214.717 0 0 1 346.526 48zm-222.763 0h-7.289a214.717 214.717 0 0 1 18.307-10.311A185.847 185.847 0 0 0 123.763 48zM78.411 78.411A220.355 220.355 0 0 1 95.539 63h14.854a215.858 215.858 0 0 0-4.381 5.591C92.663 86.284 81.749 106.325 73.49 128H41.243c9.821-17.994 22.268-34.689 37.168-49.589zM41.243 335H73.49c8.258 21.675 19.173 41.716 32.522 59.409a218.06 218.06 0 0 0 4.381 5.591H95.539a220.341 220.341 0 0 1-17.127-15.411c-14.901-14.9-27.348-31.595-37.169-49.589zm75.231 80h7.289a186.158 186.158 0 0 0 11.018 10.311A214.717 214.717 0 0 1 116.474 415zm222.763 0h7.289a214.717 214.717 0 0 1-18.307 10.311c3.76-3.24 7.436-6.678 11.018-10.311zm45.352-30.411A220.341 220.341 0 0 1 367.462 400h-14.854a215.858 215.858 0 0 0 4.381-5.591c13.349-17.693 24.263-37.734 32.522-59.409h32.247c-9.822 17.994-22.269 34.689-37.169 49.589z"/></svg>