<!-- Generated by IcoMoon.io -->
<svg version="1.1" xmlns="http://www.w3.org/2000/svg" width="32" height="32" viewBox="0 0 32 32">
<title>briefcase</title>
<path d="M30.395 7.2h-1.061v-1.6h-5.333v1.6h-2.133v-3.090c-0.001-0.944-0.766-1.709-1.71-1.71h-8.314c-0.944 0.001-1.709 0.766-1.71 1.71v3.090h-2.133v-1.6h-5.333v1.6h-1.061c-0.886 0.001-1.604 0.719-1.605 1.605v19.189c0.001 0.886 0.719 1.604 1.605 1.605h28.789c0.886-0.001 1.604-0.719 1.605-1.605v-19.189c-0.001-0.886-0.719-1.604-1.605-1.605h-0zM25.067 6.667h3.2v0.533h-3.2v-0.533zM11.2 4.11c0-0.355 0.289-0.643 0.643-0.643h8.314c0.355 0 0.643 0.289 0.643 0.643v3.090h-9.6v-3.090zM10.133 8.267h16.533v20.267h-21.333v-20.267h4.8zM3.733 6.667h3.2v0.533h-3.2v-0.533zM1.067 27.995v-19.189c0-0.297 0.242-0.539 0.539-0.539h2.661v20.267h-2.661c-0.297 0-0.539-0.242-0.539-0.539zM30.933 27.995c0 0.297-0.242 0.539-0.539 0.539h-2.661v-20.267h2.661c0.297 0 0.539 0.242 0.539 0.539v19.189z "></path>
</svg>
