<!-- Generated by IcoMoon.io -->
<svg version="1.1" xmlns="http://www.w3.org/2000/svg" width="32" height="32" viewBox="0 0 32 32">
<title>paint-palette</title>
<path d="M21.745 14.75c0 0.345-0.28 0.625-0.625 0.625s-0.625-0.28-0.625-0.625c0-0.345 0.28-0.625 0.625-0.625s0.625 0.28 0.625 0.625z"></path>
<path d="M21.227 17.428c-0.341-0.051-0.659 0.185-0.71 0.527-0.171 1.153-1.146 2.11-2.608 2.559-1.563 0.48-3.732 0.319-5.056-1.122-0.233-0.254-0.629-0.271-0.883-0.038s-0.271 0.629-0.038 0.883c0.766 0.834 1.807 1.403 3.009 1.644 0.425 0.085 0.865 0.128 1.309 0.128 0.685 0 1.377-0.101 2.026-0.3 1.934-0.594 3.234-1.929 3.478-3.571 0.051-0.341-0.185-0.659-0.527-0.71z"></path>
<path d="M29.914 11.901c-1.136-1.317-2.704-2.171-4.591-2.514 1.807-1.219 3.365-2.433 4.477-3.492 1.694-1.614 2.262-2.749 1.788-3.57-0.528-0.915-2.052-0.908-4.796 0.020-2.319 0.784-5.207 2.147-8.133 3.836-0.791 0.45-1.28 0.746-1.764 1.047l0.268-0.156c-0.363-1.026-0.124-2.198 0.678-3.214 0.6-0.761 0.735-1.728 0.35-2.523-0.403-0.834-1.288-1.333-2.368-1.335h-0.029c-3.813 0-7.542 1.504-10.501 4.236-2.963 2.735-4.776 6.356-5.107 10.195-0.398 4.624 1.080 9.020 4.162 12.378 3.027 3.299 7.319 5.191 11.774 5.191 2.399 0 4.651-0.439 6.693-1.305 1.867-0.792 3.526-1.922 4.929-3.36 1.301-1.333 2.327-2.868 3.049-4.561 0.687-1.611 1.063-3.319 1.086-4.939 0.034-2.355-0.645-4.407-1.963-5.936zM17.236 8.499c0.412-0.273 1.081-0.682 1.758-1.079l0.29-0.157c2.705-1.562 5.399-2.849 7.586-3.623 2.407-0.852 3.392-0.797 3.622-0.687-0.020 0.145-0.201 0.792-1.78 2.247-1.319 1.215-3.245 2.643-5.423 4.022-0.441 0.293-1.137 0.719-1.841 1.131l-0.289 0.156c-0.999 0.577-1.997 1.116-2.977 1.61-0.22-0.637-0.474-1.182-0.775-1.697l0.024 0.044c-0.317-0.544-0.655-1.014-1.032-1.449l0.010 0.012c0.066-0.052 0.336-0.227 0.607-0.401l0.22-0.131zM17.049 12.675c-1.765 0.837-3.384 1.475-4.677 1.845-0.074-0.35-0.197-0.66-0.362-0.942l0.008 0.015c-0.165-0.282-0.361-0.524-0.588-0.733l-0.002-0.002c0.968-0.934 2.331-2.017 3.935-3.124 0.737 0.821 1.313 1.802 1.669 2.884l0.016 0.058zM30.628 17.818c-0.089 6.219-5.661 12.932-14.507 12.932-4.106 0-8.062-1.744-10.853-4.786-2.842-3.097-4.205-7.155-3.837-11.425 0.631-7.327 7.074-13.289 14.363-13.289h0.028c0.598 0.001 1.051 0.23 1.244 0.629 0.177 0.366 0.1 0.817-0.206 1.205-1.126 1.428-1.409 3.185-0.773 4.665-0.531 0.337-0.853 0.552-1.172 0.77l0.185-0.119c-1.987 1.341-3.666 2.675-4.782 3.798-0.847-0.289-1.777-0.205-2.568 0.251-1.298 0.75-3.003 4.245-3.332 4.938-0.038 0.078-0.060 0.171-0.060 0.268 0 0.327 0.252 0.596 0.572 0.623l0.002 0c0.345 0.028 1.326 0.099 2.418 0.099 1.325 0 2.813-0.104 3.525-0.515 0.752-0.439 1.296-1.165 1.487-2.023l0.004-0.021c1.533-0.402 3.535-1.189 5.704-2.246 1.215-0.591 2.465-1.257 3.715-1.978 0.913-0.522 1.524-0.894 2.127-1.276l-0.257 0.152c0.004 0 0.007 0.001 0.011 0.001 5.209 0.149 7.012 3.894 6.963 7.348zM11.184 15.273c-0.041 0.644-0.403 1.196-0.926 1.502l-0.009 0.005c-0.591 0.341-2.622 0.387-4.289 0.311 0.767-1.482 1.822-3.217 2.414-3.559 0.559-0.322 1.234-0.337 1.807-0.038 0.318 0.168 0.574 0.415 0.749 0.715l0.005 0.009c0.158 0.269 0.252 0.592 0.252 0.937 0 0.041-0.001 0.083-0.004 0.123l0-0.006z"></path>
<path d="M11.12 3.865c-1.379 0-2.5 1.122-2.5 2.5s1.121 2.5 2.5 2.5 2.5-1.122 2.5-2.5-1.121-2.5-2.5-2.5zM11.12 7.615c-0.689 0-1.25-0.561-1.25-1.25s0.561-1.25 1.25-1.25 1.25 0.561 1.25 1.25-0.561 1.25-1.25 1.25zM7.995 20.659c-1.378 0-2.5 1.122-2.5 2.5s1.122 2.5 2.5 2.5 2.5-1.122 2.5-2.5-1.121-2.5-2.5-2.5zM7.995 24.409c-0.689 0-1.25-0.561-1.25-1.25s0.561-1.25 1.25-1.25 1.25 0.561 1.25 1.25-0.561 1.25-1.25 1.25zM14.245 24.409c-1.379 0-2.5 1.122-2.5 2.5s1.121 2.5 2.5 2.5 2.5-1.122 2.5-2.5-1.121-2.5-2.5-2.5zM14.245 28.159c-0.689 0-1.25-0.561-1.25-1.25s0.561-1.25 1.25-1.25 1.25 0.561 1.25 1.25-0.561 1.25-1.25 1.25zM21.745 23.159c-1.378 0-2.5 1.122-2.5 2.5s1.122 2.5 2.5 2.5 2.5-1.122 2.5-2.5-1.122-2.5-2.5-2.5zM21.745 26.909c-0.689 0-1.25-0.561-1.25-1.25s0.561-1.25 1.25-1.25 1.25 0.561 1.25 1.25-0.561 1.25-1.25 1.25zM26.745 16.909c-1.378 0-2.5 1.122-2.5 2.5s1.122 2.5 2.5 2.5 2.5-1.122 2.5-2.5-1.122-2.5-2.5-2.5zM26.745 20.659c-0.689 0-1.25-0.561-1.25-1.25s0.561-1.25 1.25-1.25 1.25 0.561 1.25 1.25-0.561 1.25-1.25 1.25z"></path>
</svg>
