<!-- Generated by IcoMoon.io -->
<svg version="1.1" xmlns="http://www.w3.org/2000/svg" width="32" height="32" viewBox="0 0 32 32">
<title>search</title>
<path d="M31.292 27.874l-8.348-8.349c3.86-5.747 2.329-13.535-3.418-17.395s-13.535-2.329-17.395 3.418-2.329 13.535 3.418 17.395c4.227 2.838 9.75 2.838 13.977 0l8.348 8.349c0.944 0.944 2.474 0.944 3.418 0s0.944-2.474 0-3.418zM12.548 24.006c-6.325-0.007-11.451-5.133-11.458-11.458 0-6.328 5.13-11.458 11.458-11.458s11.458 5.13 11.458 11.458-5.13 11.458-11.458 11.458zM30.539 30.538c-0.244 0.245-0.582 0.396-0.956 0.396-0 0-0 0-0.001 0h0c-0.001 0-0.003 0-0.004 0-0.372 0-0.708-0.151-0.951-0.395l-8.131-8.132 1.911-1.911 8.131 8.132c0.528 0.527 0.528 1.383 0.001 1.911z"></path>
<path d="M12.829 2.159l-0.028 1.066c2.858 0.076 5.384 1.43 7.040 3.508l0.015 0.019 0.835-0.663c-1.861-2.336-4.677-3.844-7.847-3.929l-0.014-0zM21.467 7.21l-0.914 0.548c0.174 0.282 0.352 0.618 0.509 0.965l0.024 0.059 0.972-0.431c-0.201-0.453-0.399-0.828-0.617-1.188l0.026 0.047z"></path>
</svg>
