<!-- Generated by IcoMoon.io -->
<svg version="1.1" xmlns="http://www.w3.org/2000/svg" width="32" height="32" viewBox="0 0 32 32">
<title>support</title>
<path d="M20.576 21.926v-0.557c0.157-0.127 0.309-0.266 0.454-0.412 1.124-1.235 1.883-2.821 2.092-4.576l0.004-0.039c1.079-0.169 2-0.74 2.621-1.553l0.007-0.010c0.878-1.242 0.957-3.028 0.224-5.269-0.045-0.132-0.13-0.24-0.24-0.314l-0.002-0.001-0.333-0.224c0.002-0.059 0.002-0.129 0.002-0.199 0-2.039-0.743-3.905-1.974-5.341l0.009 0.011c-1.629-1.835-4.13-2.762-7.443-2.774-3.307 0-5.814 0.939-7.443 2.75-1.221 1.425-1.965 3.291-1.965 5.33 0 0.070 0.001 0.14 0.003 0.21l-0-0.010-0.333 0.224c-0.113 0.075-0.197 0.183-0.241 0.311l-0.001 0.004c-0.733 2.253-0.654 4.028 0.224 5.269 0.627 0.829 1.548 1.406 2.605 1.578l0.023 0.003c0.214 1.797 0.974 3.385 2.107 4.628l-0.006-0.006c0.141 0.142 0.289 0.277 0.444 0.404l0.010 0.008v0.557c-2.32 0.448-11.58 2.622-11.422 8.8 0 0.334 0.271 0.606 0.606 0.606v0h30.785c0.334 0 0.606-0.271 0.606-0.606v0c0.157-6.178-9.103-8.352-11.422-8.8zM8.505 14.986c-0.527-0.18-0.965-0.507-1.279-0.932l-0.005-0.007 0.030 0.006c-0.606-0.884-0.66-2.223-0.121-3.991l0.442-0.297c0.163-0.11 0.269-0.295 0.269-0.504 0-0.021-0.001-0.042-0.003-0.062l0 0.003c-0.007-0.12-0.011-0.261-0.011-0.402 0-1.748 0.627-3.35 1.668-4.593l-0.009 0.011c1.369-1.55 3.567-2.326 6.511-2.338s5.142 0.787 6.535 2.338c1.032 1.232 1.659 2.834 1.659 4.582 0 0.142-0.004 0.282-0.012 0.422l0.001-0.019c-0.002 0.018-0.003 0.039-0.003 0.059 0 0.209 0.106 0.394 0.267 0.502l0.002 0.001 0.442 0.297c0.539 1.762 0.503 3.107-0.121 3.991-0.321 0.432-0.761 0.759-1.271 0.933l-0.019 0.006c0.623-0.707 1.004-1.64 1.004-2.663 0-0.129-0.006-0.256-0.018-0.382l0.001 0.016c-0.12-0.685-0.472-1.273-0.971-1.692l-0.004-0.004c-0.26-6.056-4.506-6.735-6.335-6.735-0.387-0.001-0.774 0.027-1.157 0.085-0.341-0.054-0.734-0.085-1.134-0.085-0.008 0-0.016 0-0.024 0h0.001c-1.817 0-6.056 0.666-6.335 6.735-0.506 0.42-0.862 1.005-0.985 1.672l-0.003 0.017c-0.011 0.11-0.017 0.238-0.017 0.368 0 1.022 0.381 1.955 1.008 2.665l-0.004-0.004zM22.284 10.019c-0.215 0.013-0.467 0.021-0.72 0.021-2.411 0-4.663-0.684-6.571-1.868l0.053 0.031c-0.097-0.069-0.218-0.11-0.348-0.11-0.173 0-0.329 0.072-0.439 0.188l-0 0c-1.211 1.302-3.422 1.605-4.488 1.672 0.327-4.282 2.919-5.215 5.1-5.215 0.012-0 0.027-0 0.042-0 0.351 0 0.695 0.031 1.029 0.090l-0.035-0.005c0.036 0.008 0.078 0.012 0.121 0.012s0.085-0.004 0.125-0.013l-0.004 0.001c0.299-0.054 0.644-0.085 0.996-0.085 0.014 0 0.028 0 0.042 0h-0.002c2.162 0 4.766 0.957 5.069 5.275l0.030 0.006zM9.983 15.101l0.024 0.006c0-0.002 0-0.003 0-0.005 0-0.154-0.057-0.294-0.152-0.401l0.001 0.001c-0.83-0.951-1.211-1.817-1.108-2.532 0.052-0.412 0.254-0.769 0.549-1.022l0.002-0.002c0.799 0 3.634-0.151 5.451-1.72 1.93 1.129 4.246 1.801 6.718 1.817l0.005 0c0.406 0 0.818 0 1.248-0.067 0.289 0.248 0.487 0.593 0.544 0.985l0.001 0.009c0.103 0.703-0.279 1.581-1.108 2.532-0.094 0.106-0.151 0.247-0.151 0.401 0 0.002 0 0.004 0 0.006v-0 0.315l-3.525 1.89c-0.7-0.662-1.804-0.632-2.466 0.067s-0.632 1.804 0.067 2.466c0.7 0.662 1.804 0.632 2.466-0.067 0.296-0.312 0.478-0.734 0.478-1.199 0-0 0-0.001 0-0.001v0c0.003-0.055 0.003-0.109 0-0.164l2.78-1.49c-0.255 1.246-0.827 2.331-1.627 3.203l0.004-0.005c-0.969 0.934-2.289 1.509-3.743 1.509-0.096 0-0.191-0.003-0.286-0.007l0.013 0.001h-0.303c-0.080 0.004-0.174 0.007-0.268 0.007-1.453 0-2.771-0.573-3.743-1.504l0.002 0.002c-1.914-1.908-1.871-4.997-1.871-5.027zM17.814 18.577c0 0.298-0.241 0.539-0.539 0.539s-0.539-0.241-0.539-0.539v0c0-0.298 0.241-0.539 0.539-0.539s0.539 0.241 0.539 0.539v0zM15.391 30.084h-14.16c0.478-4.548 7.873-6.45 10.187-6.941v1.084c0 1.375 1.672 2.423 3.973 2.598v3.258zM12.63 24.228v-2.089c0.903 0.429 1.963 0.68 3.081 0.68 0.048 0 0.095-0 0.142-0.001l-0.007 0h0.303c0.040 0.001 0.088 0.001 0.135 0.001 1.118 0 2.177-0.251 3.125-0.698l-0.045 0.019v2.089c0 0.575-1.314 1.405-3.367 1.405s-3.367-0.83-3.367-1.405zM16.603 30.102v-3.283c2.301-0.157 3.973-1.211 3.973-2.598v-1.060c2.332 0.485 9.69 2.386 10.187 6.941h-14.16z"></path>
</svg>
