<!-- Generated by IcoMoon.io -->
<svg version="1.1" xmlns="http://www.w3.org/2000/svg" width="32" height="32" viewBox="0 0 32 32">
<title>web</title>
<path d="M26.133 0h-20.267c-1.472 0.002-2.665 1.195-2.667 2.667v14.4c0.002 1.472 1.195 2.665 2.667 2.667h7.293l-0.762 2.667h-1.731v1.067h10.667v-1.067h-1.731l-0.762-2.667h7.293c1.472-0.002 2.665-1.195 2.667-2.667v-14.4c-0.002-1.472-1.195-2.665-2.667-2.667zM13.507 22.4l0.762-2.667h3.462l0.762 2.667h-4.986zM27.733 17.067c0 0.884-0.716 1.6-1.6 1.6h-20.267c-0.884 0-1.6-0.716-1.6-1.6v-1.067h23.467v1.067zM27.733 14.933h-23.467v-12.267c0-0.884 0.716-1.6 1.6-1.6h20.267c0.884 0 1.6 0.716 1.6 1.6v12.267zM20.267 24.533h-14.933c-0.295 0-0.533 0.239-0.533 0.533v0 6.4c0 0.295 0.239 0.533 0.533 0.533v0h14.933c0.295 0 0.533-0.239 0.533-0.533v0-6.4c0-0.295-0.239-0.533-0.533-0.533v0zM19.733 30.933h-13.867v-5.333h13.867v5.333z"></path>
<path d="M6.933 28.8h1.067v1.067h-1.067zM6.933 26.667h1.067v1.067h-1.067zM9.067 26.667h1.067v1.067h-1.067zM11.2 26.667h1.067v1.067h-1.067zM15.467 26.667h1.067v1.067h-1.067zM13.333 26.667h1.067v1.067h-1.067zM17.6 28.8h1.067v1.067h-1.067zM17.6 26.667h1.067v1.067h-1.067zM9.067 28.8h7.467v1.067h-7.467zM24.533 24.533c-1.473 0-2.667 1.194-2.667 2.667v2.133c0 1.473 1.194 2.667 2.667 2.667s2.667-1.194 2.667-2.667v-2.133c0-1.473-1.194-2.667-2.667-2.667zM26.133 29.333c0 0.884-0.716 1.6-1.6 1.6s-1.6-0.716-1.6-1.6v-2.133c0-0.884 0.716-1.6 1.6-1.6s1.6 0.716 1.6 1.6v2.133z"></path>
<path d="M24 26.667h1.067v1.067h-1.067zM14.416 12.127l2.135-7.462 1.025 0.293-2.135 7.462zM13.141 6.276l-0.683-0.819-3.2 2.667c-0.118 0.098-0.192 0.245-0.192 0.41s0.074 0.311 0.191 0.409l0.001 0.001 3.2 2.667 0.683-0.819-2.708-2.257 2.708-2.257zM22.809 8.192c-0.021-0.025-0.043-0.047-0.067-0.067l-0.001-0.001-3.2-2.667-0.683 0.819 2.708 2.257-2.708 2.257 0.683 0.819 3.2-2.667c0.118-0.098 0.192-0.245 0.192-0.41 0-0.13-0.047-0.25-0.124-0.342l0.001 0.001z"></path>
</svg>
